<svg xmlns="http://www.w3.org/2000/svg" xmlns:xlink="http://www.w3.org/1999/xlink" width="1080" zoomAndPan="magnify" viewBox="0 0 810 1012.49997" height="1350" preserveAspectRatio="xMidYMid meet" version="1.2"><defs><clipPath id="5e13b8b91a"><path d="M 0.199219 0 L 809.800781 0 L 809.800781 1012 L 0.199219 1012 Z M 0.199219 0 "/></clipPath></defs><g id="59f55e5a2b"><g clip-rule="nonzero" clip-path="url(#5e13b8b91a)"><path style=" stroke:none;fill-rule:nonzero;fill:#ffffff;fill-opacity:1;" d="M 0.199219 0 L 809.800781 0 L 809.800781 1012 L 0.199219 1012 Z M 0.199219 0 "/><path style=" stroke:none;fill-rule:nonzero;fill:#ffffff;fill-opacity:1;" d="M 0.199219 0 L 809.800781 0 L 809.800781 1012 L 0.199219 1012 Z M 0.199219 0 "/></g><path style=" stroke:none;fill-rule:nonzero;fill:#ee3023;fill-opacity:1;" d="M 226.058594 506.113281 C 226.058594 554.273438 187.050781 593.320312 138.914062 593.320312 C 90.78125 593.320312 51.757812 554.273438 51.757812 506.113281 C 51.757812 457.957031 90.78125 418.910156 138.914062 418.910156 C 187.050781 418.910156 226.058594 457.957031 226.058594 506.113281 "/><path style=" stroke:none;fill-rule:nonzero;fill:#ffffff;fill-opacity:1;" d="M 139.605469 554.738281 C 115.664062 554.820312 90.75 534.375 90.636719 501.53125 C 90.558594 479.824219 102.277344 458.917969 117.234375 446.515625 C 131.835938 434.4375 151.835938 426.664062 169.964844 426.601562 C 172.300781 426.601562 174.75 426.792969 176.242188 427.304688 C 160.386719 430.589844 147.769531 445.363281 147.820312 462.105469 C 147.820312 462.664062 147.867188 463.257812 147.929688 463.53125 C 174.464844 470.003906 186.503906 486.023438 186.585938 508.179688 C 186.648438 530.355469 169.164062 554.644531 139.601562 554.738281 "/><path style=" stroke:none;fill-rule:nonzero;fill:#ee3023;fill-opacity:1;" d="M 282.34375 542.226562 L 255.695312 478.605469 L 273.105469 478.605469 L 289.726562 520.855469 L 305.832031 478.605469 L 322.453125 478.605469 L 296.59375 542.226562 Z M 368.828125 510.089844 C 368.828125 507.445312 368.523438 504.929688 367.898438 502.542969 C 367.289062 500.15625 366.363281 498.105469 365.128906 496.390625 C 363.894531 494.660156 362.40625 493.296875 360.644531 492.289062 C 358.882812 491.261719 356.820312 490.75 354.449219 490.75 C 352.078125 490.75 349.996094 491.261719 348.25 492.289062 C 346.492188 493.296875 344.984375 494.660156 343.769531 496.390625 C 342.535156 498.105469 341.605469 500.15625 340.996094 502.542969 C 340.375 504.929688 340.070312 507.445312 340.070312 510.089844 C 340.070312 512.828125 340.375 515.375 340.996094 517.714844 C 341.605469 520.054688 342.503906 522.105469 343.6875 523.867188 C 344.871094 525.628906 346.378906 527.023438 348.1875 528.046875 C 349.980469 529.058594 352.078125 529.570312 354.449219 529.570312 C 356.820312 529.570312 358.882812 529.058594 360.644531 528.046875 C 362.40625 527.023438 363.894531 525.628906 365.128906 523.867188 C 366.363281 522.105469 367.289062 520.054688 367.898438 517.714844 C 368.523438 515.375 368.828125 512.828125 368.828125 510.089844 M 384.921875 510.160156 C 384.921875 514.308594 384.28125 518.375 383.015625 522.382812 C 381.734375 526.386719 379.84375 529.960938 377.332031 533.132812 C 374.832031 536.304688 371.664062 538.851562 367.835938 540.789062 C 364.007812 542.730469 359.539062 543.691406 354.449219 543.691406 C 349.339844 543.691406 344.871094 542.730469 341.0625 540.789062 C 337.234375 538.851562 334.0625 536.304688 331.550781 533.132812 C 329.050781 529.960938 327.164062 526.386719 325.882812 522.382812 C 324.617188 518.375 323.976562 514.308594 323.976562 510.160156 C 323.976562 506.023438 324.617188 501.988281 325.882812 498.015625 C 327.164062 494.058594 329.050781 490.515625 331.550781 487.390625 C 334.0625 484.269531 337.234375 481.769531 341.0625 479.878906 C 344.871094 477.988281 349.339844 477.027344 354.449219 477.027344 C 359.539062 477.027344 363.992188 477.988281 367.773438 479.878906 C 371.550781 481.769531 374.71875 484.269531 377.265625 487.390625 C 379.828125 490.515625 381.734375 494.058594 383.015625 498.015625 C 384.28125 501.988281 384.921875 506.023438 384.921875 510.160156 M 434.0625 492.609375 C 430.910156 491.375 427.980469 490.75 425.257812 490.75 C 422.472656 490.75 420.054688 491.296875 418.050781 492.351562 C 416.035156 493.410156 414.367188 494.835938 413.054688 496.648438 C 411.742188 498.457031 410.765625 500.492188 410.109375 502.75 C 409.445312 505.019531 409.113281 507.339844 409.117188 509.703125 C 409.117188 512.347656 409.40625 514.878906 409.980469 517.3125 C 410.542969 519.734375 411.421875 521.863281 412.605469 523.675781 C 413.777344 525.484375 415.265625 526.941406 417.058594 528.046875 C 418.851562 529.136719 420.980469 529.699219 423.433594 529.699219 C 425.449219 529.699219 427.5 529.136719 429.597656 528.046875 C 431.695312 526.941406 433.183594 525.628906 434.066406 524.140625 Z M 435.378906 542.226562 L 434.722656 537.355469 C 433.230469 539.023438 431.261719 540.496094 428.796875 541.761719 C 426.347656 543.042969 423.449219 543.683594 420.117188 543.683594 C 415.746094 543.683594 411.871094 542.757812 408.554688 540.914062 C 405.210938 539.070312 402.40625 536.601562 400.132812 533.527344 C 397.859375 530.453125 396.113281 526.878906 394.929688 522.824219 C 393.761719 518.789062 393.167969 514.558594 393.167969 510.152344 C 393.164062 506.011719 393.773438 501.964844 394.992188 498.007812 C 396.226562 494.050781 398.082031 490.511719 400.582031 487.386719 C 403.09375 484.261719 406.21875 481.761719 409.996094 479.871094 C 413.761719 477.980469 418.195312 477.019531 423.273438 477.019531 C 426.601562 477.019531 430.207031 477.644531 434.0625 478.863281 L 434.0625 454.191406 L 450.414062 454.191406 L 450.414062 542.226562 Z M 496.464844 512.394531 C 494.703125 512.488281 492.878906 512.652344 491.023438 512.859375 C 489.242188 513.074219 487.476562 513.359375 485.722656 513.726562 C 482.167969 514.429688 479.71875 515.632812 478.339844 517.347656 C 476.980469 519.078125 476.289062 520.933594 476.289062 522.96875 C 476.289062 525.070312 477.058594 526.765625 478.613281 528.046875 C 480.164062 529.3125 482.34375 529.953125 485.175781 529.953125 C 487.332031 529.957031 489.390625 529.519531 491.359375 528.640625 C 493.34375 527.757812 495.058594 526.65625 496.464844 525.339844 Z M 497.777344 542.179688 L 497.140625 537.421875 C 495.363281 539.375 493.121094 540.914062 490.382812 542.019531 C 487.644531 543.125 484.648438 543.683594 481.382812 543.683594 C 478.644531 543.683594 476.003906 543.21875 473.503906 542.292969 C 470.972656 541.378906 468.75 540.046875 466.8125 538.332031 C 464.875 536.621094 463.304688 534.519531 462.117188 532.003906 C 460.917969 529.488281 460.324219 526.65625 460.324219 523.480469 C 460.324219 520.328125 460.933594 517.523438 462.183594 515.101562 C 463.414062 512.683594 465.082031 510.648438 467.210938 508.96875 C 469.324219 507.300781 471.757812 505.9375 474.496094 504.882812 C 477.21875 503.824219 480.101562 503.023438 483.097656 502.492188 C 485.210938 502.0625 487.53125 501.742188 490.046875 501.515625 C 492.558594 501.292969 494.65625 501.101562 496.339844 500.921875 L 496.339844 499.996094 C 496.339844 496.46875 495.441406 493.972656 493.617188 492.464844 C 491.808594 490.976562 489.308594 490.222656 486.136719 490.222656 C 484.28125 490.222656 482.503906 490.445312 480.820312 490.894531 C 479.140625 491.328125 477.652344 491.871094 476.320312 492.527344 C 474.992188 493.203125 473.824219 493.859375 472.800781 494.515625 C 471.789062 495.171875 470.972656 495.765625 470.347656 496.292969 L 464.9375 484.824219 C 465.640625 484.199219 466.714844 483.460938 468.171875 482.578125 C 469.628906 481.699219 471.375 480.832031 473.457031 480 C 475.523438 479.167969 477.84375 478.460938 480.4375 477.886719 C 483.03125 477.308594 485.832031 477.019531 488.8125 477.019531 C 492.335938 477.019531 495.554688 477.484375 498.453125 478.414062 C 501.351562 479.34375 503.863281 480.785156 505.976562 482.773438 C 508.074219 484.742188 509.726562 487.242188 510.925781 490.285156 C 512.109375 493.3125 512.703125 496.984375 512.703125 501.292969 L 512.703125 542.179688 Z M 563.238281 468.707031 C 562.710938 468.449219 561.6875 468.066406 560.148438 467.582031 C 558.597656 467.105469 556.5625 466.863281 554 466.863281 C 551.726562 466.863281 549.804688 467.550781 548.269531 468.914062 C 546.730469 470.273438 545.960938 472.503906 545.960938 475.578125 L 545.960938 478.605469 L 559.683594 478.605469 L 559.683594 491.808594 L 546.089844 491.808594 L 546.089844 542.226562 L 529.726562 542.226562 L 529.726562 491.808594 L 521.285156 491.808594 L 521.285156 478.605469 L 529.726562 478.605469 L 529.726562 475.179688 C 529.726562 471.042969 530.253906 467.550781 531.308594 464.683594 C 532.367188 461.832031 533.839844 459.492188 535.730469 457.699219 C 537.621094 455.886719 539.84375 454.558594 542.390625 453.726562 C 544.953125 452.890625 547.722656 452.476562 550.71875 452.476562 C 554.671875 452.476562 557.941406 452.84375 560.535156 453.597656 C 563.128906 454.351562 564.648438 454.847656 565.082031 455.121094 Z M 607.835938 510.089844 C 607.835938 507.445312 607.515625 504.929688 606.90625 502.542969 C 606.296875 500.15625 605.371094 498.105469 604.136719 496.390625 C 602.902344 494.660156 601.414062 493.296875 599.652344 492.289062 C 597.890625 491.261719 595.824219 490.75 593.457031 490.75 C 591.085938 490.75 589.003906 491.261719 587.257812 492.289062 C 585.496094 493.296875 583.992188 494.660156 582.757812 496.390625 C 581.542969 498.105469 580.613281 500.15625 579.988281 502.542969 C 579.382812 504.929688 579.078125 507.445312 579.078125 510.089844 C 579.078125 512.828125 579.378906 515.375 579.988281 517.714844 C 580.613281 520.054688 581.511719 522.105469 582.695312 523.867188 C 583.878906 525.628906 585.386719 527.023438 587.179688 528.046875 C 588.988281 529.058594 591.085938 529.570312 593.457031 529.570312 C 595.824219 529.570312 597.890625 529.058594 599.652344 528.046875 C 601.414062 527.023438 602.902344 525.628906 604.136719 523.867188 C 605.371094 522.105469 606.296875 520.054688 606.90625 517.714844 C 607.515625 515.375 607.835938 512.828125 607.835938 510.089844 M 623.929688 510.160156 C 623.929688 514.308594 623.289062 518.375 622.007812 522.382812 C 620.742188 526.386719 618.851562 529.960938 616.339844 533.132812 C 613.839844 536.304688 610.671875 538.851562 606.84375 540.789062 C 603.015625 542.730469 598.546875 543.691406 593.457031 543.691406 C 588.347656 543.691406 583.878906 542.730469 580.070312 540.789062 C 576.242188 538.851562 573.070312 536.304688 570.558594 533.132812 C 568.058594 529.960938 566.171875 526.386719 564.890625 522.382812 C 563.613281 518.40625 562.980469 514.332031 562.984375 510.160156 C 562.984375 506.023438 563.609375 501.988281 564.890625 498.015625 C 566.171875 494.058594 568.058594 490.515625 570.558594 487.390625 C 573.070312 484.269531 576.242188 481.769531 580.070312 479.878906 C 583.878906 477.988281 588.347656 477.027344 593.457031 477.027344 C 598.546875 477.027344 603 477.988281 606.777344 479.878906 C 610.558594 481.769531 613.726562 484.269531 616.273438 487.390625 C 618.835938 490.515625 620.742188 494.058594 622.007812 498.015625 C 623.289062 501.988281 623.929688 506.023438 623.929688 510.160156 M 674.707031 542.226562 L 674.707031 505.9375 C 674.707031 501.101562 673.695312 497.351562 671.679688 494.707031 C 669.644531 492.082031 666.84375 490.75 663.222656 490.75 C 660.679688 490.75 658.324219 491.40625 656.179688 492.738281 C 654.015625 494.050781 652.144531 495.507812 650.558594 497.09375 L 650.558594 542.226562 L 634.207031 542.226562 L 634.207031 478.605469 L 649.117188 478.605469 L 649.902344 483.621094 C 652.496094 481.488281 655.378906 479.863281 658.546875 478.75 C 661.75 477.597656 664.984375 477.035156 668.238281 477.035156 C 671.582031 477.035156 674.65625 477.53125 677.476562 478.542969 C 680.292969 479.566406 682.710938 481.171875 684.730469 483.363281 C 686.761719 485.558594 688.316406 488.425781 689.421875 491.9375 C 690.511719 495.460938 691.070312 499.691406 691.070312 504.609375 L 691.070312 542.226562 Z M 741.960938 502.765625 C 741.78125 500.570312 741.320312 498.648438 740.566406 497.03125 C 739.8125 495.398438 738.886719 494.082031 737.78125 493.074219 C 736.675781 492.046875 735.488281 491.3125 734.207031 490.816406 C 732.910156 490.335938 731.613281 490.09375 730.285156 490.09375 C 727.453125 490.09375 724.761719 491.152344 722.199219 493.265625 C 719.636719 495.382812 718.132812 498.539062 717.683594 502.765625 Z M 717.300781 514.511719 C 717.652344 519.878906 719.316406 523.753906 722.328125 526.125 C 725.320312 528.496094 729.214844 529.699219 733.96875 529.699219 C 736.179688 529.699219 738.261719 529.488281 740.199219 529.105469 C 742.136719 528.707031 743.863281 528.207031 745.371094 527.582031 C 746.875 526.972656 748.15625 526.351562 749.214844 525.742188 C 750.269531 525.117188 751.054688 524.539062 751.597656 524.011719 L 755.953125 537.355469 C 755.332031 537.789062 754.335938 538.382812 752.976562 539.136719 C 751.613281 539.886719 749.917969 540.578125 747.898438 541.25 C 745.882812 541.90625 743.496094 542.46875 740.773438 542.964844 C 738.050781 543.445312 735.058594 543.683594 731.808594 543.683594 C 727.660156 543.683594 723.738281 543.027344 719.988281 541.714844 C 716.257812 540.382812 712.976562 538.332031 710.171875 535.5625 C 707.355469 532.789062 705.113281 529.347656 703.449219 525.210938 C 701.765625 521.078125 700.933594 516.144531 700.933594 510.425781 C 700.933594 505.058594 701.703125 500.300781 703.242188 496.164062 C 704.777344 492.03125 706.890625 488.554688 709.566406 485.734375 C 712.253906 482.933594 715.378906 480.769531 718.933594 479.261719 C 722.503906 477.773438 726.296875 477.019531 730.351562 477.019531 C 734.402344 477.019531 738.132812 477.695312 741.574219 479.007812 C 745 480.320312 747.964844 482.371094 750.476562 485.144531 C 752.976562 487.914062 754.960938 491.503906 756.402344 495.910156 C 757.859375 500.300781 758.582031 505.539062 758.582031 511.609375 L 758.582031 514.511719 Z M 717.300781 514.511719 "/></g></svg>