<svg xmlns="http://www.w3.org/2000/svg" xml:space="preserve" style="fill-rule:evenodd;clip-rule:evenodd;stroke-linejoin:round;stroke-miterlimit:2" viewBox="0 0 899 142"><path d="M205.865 35.575c-9.828-9.543-21.826-14.315-35.999-14.315h-35.292v76.146l9.212 23.066h26.08c14.361 0 26.408-4.748 36.141-14.243 9.731-9.497 14.598-21.141 14.598-34.938v-.425c0-13.983-4.914-25.746-14.74-35.291Zm-11.338 59.528c-6.332 6.426-14.552 9.637-24.661 9.637H151.44V36.992h18.426c10.014 0 18.212 3.189 24.59 9.567s9.566 14.481 9.566 24.307c0 9.733-3.166 17.812-9.495 24.237ZM281.975 21.26h-25.512l-35.999 99.212h17.574l7.795-21.684h46.205l7.795 21.684h17.434L281.975 21.26Zm-31.039 62.22 18.283-50.457 17.858 50.457h-36.141ZM393.873 30.969c-6.378-6.472-14.339-9.709-23.883-9.709h-42.944v99.212h16.867V87.449l26.077-.142c9.732-.093 17.739-3.282 24.024-9.567 6.283-6.283 9.427-14.053 9.427-23.315 0-9.163-3.189-16.984-9.568-23.456Zm-11.693 36c-3.309 3.543-7.702 5.314-13.181 5.314h-25.086V36.567l25.086-.142c5.574 0 9.992 1.654 13.252 4.961 3.259 3.308 4.89 7.512 4.89 12.614 0 5.103-1.654 9.425-4.961 12.969ZM438.584 120.472v-83.48h-31.181V21.26h84.047l-5.386 15.732h-30.615v83.48h-16.865ZM566.002 21.26h17.433l29.055 85.464 29.622-85.464h17.149l-34.157 99.212h-25.37L566.002 21.26ZM768.538 120.472v-83.48h-30.615l-5.386-15.732h83.765v15.732h-30.899v83.48h-16.865ZM898.505 21.26v15.59h-53.858v26.363h48.189V78.52h-48.189v26.362h53.858v15.59h-70.582V21.26h70.582ZM540.204 21.26h-25.511l-36 99.212h17.574l7.796-21.684h46.204l7.795 21.684h17.434L540.204 21.26Zm-31.039 62.22 18.284-50.457 17.857 50.457h-36.141ZM710.852 21.26h-25.511l-36 99.212h17.574l7.796-21.684h46.204l7.795 21.684h17.434L710.852 21.26Zm-31.039 62.22 18.283-50.457 17.858 50.457h-36.141Z" style="fill:#272f38;fill-rule:nonzero"></path><path d="M79.718 0 52.37 10.708 32.969 59.259l27.136 10.813 8.058-20.248 18.233 45.584-44.629 20.565h52.899l10.281 25.759h31.378L79.718 0Z" style="fill:#00ccb4;fill-rule:nonzero"></path><path d="M0 141.732h31.486l10.28-25.758 8.058-20.25-27.138-10.811L0 141.732Z" style="fill:#00ccb4;fill-rule:nonzero"></path></svg>