<svg xmlns="http://www.w3.org/2000/svg" width="303.82" height="71.453" viewBox="0 0 303.82 71.453">
  <g id="Group_9" data-name="Group 9" transform="translate(-65.018 -523.229)">
    <circle id="Ellipse_2" data-name="Ellipse 2" cx="35.726" cy="35.726" r="35.726" transform="translate(65.018 523.229)" fill="#1a1818"/>
    <g id="Group_5" data-name="Group 5" transform="translate(158.503 534.186)">
      <g id="Group_4" data-name="Group 4">
        <g id="Group_2" data-name="Group 2" transform="translate(0 29.636)">
          <path id="Path_2" data-name="Path 2" d="M291.84,575.263H270.7c-.016-.291-.047-.59-.047-.889,0-5.65.014-11.3-.019-16.95,0-.831.246-1.073,1.074-1.069q9.566.045,19.133,0c.791,0,1.038.256,1.017,1.029-.062,2.188.22,1.907-1.925,1.912-5.02.011-10.04.024-15.06-.014-.921-.006-1.336.212-1.25,1.2a19.113,19.113,0,0,1,0,2.823c-.051.823.238,1.083,1.075,1.077,4.515-.036,9.029-.017,13.544-.017,1.413,0,1.413,0,1.416,1.371a4.256,4.256,0,0,0,0,.471c.1.846-.231,1.147-1.121,1.139-4.231-.042-8.461-.019-12.692-.019-.41,0-.823.031-1.231-.006-.72-.065-1.036.179-.992.949a27.571,27.571,0,0,1,0,3.107c-.042.759.237.965.975.959,4.073-.029,8.145-.014,12.218-.012,1.421,0,2.842.019,4.262-.009.575-.011.8.191.771.764C291.814,573.771,291.84,574.461,291.84,575.263Z" transform="translate(-108.793 -555.814)" fill="#0a1111"/>
          <path id="Path_3" data-name="Path 3" d="M228.65,575.262h-2.986v-1.185q0-1.553,0-3.107c0-2.251-.255-2.51-2.481-2.511q-5.158,0-10.318,0c-1.01,0-2.022.034-3.029-.01-.713-.031-.929.246-.916.933.035,1.937.012,3.875.012,5.87h-2.939c-.019-.343-.048-.648-.048-.954,0-5.615.011-11.232-.017-16.847,0-.8.181-1.1,1.046-1.1,5.553.035,11.108,0,16.661.026,2.556.01,4.306.992,4.756,3.167.476,2.3.764,4.715-.53,6.958a1.552,1.552,0,0,0,.038.99,17.786,17.786,0,0,1,.719,2.763C228.737,571.879,228.65,573.515,228.65,575.262ZM216.827,565.5c2.27,0,4.54.007,6.809,0,1.453-.006,2.013-.557,2.027-1.964.006-.815.011-1.63,0-2.445-.02-1.2-.5-1.756-1.719-1.763-4.729-.03-9.456-.01-14.185-.021-.6,0-.842.233-.831.839.026,1.442.051,2.885-.009,4.324-.036.856.3,1.065,1.1,1.049C212.287,565.471,214.559,565.5,216.827,565.5Z" transform="translate(-124.436 -555.814)" fill="#0a1111"/>
          <path id="Path_4" data-name="Path 4" d="M260.092,575.3c-1.673,0-3.35-.076-5.018.016-3.174.174-6.106-2.419-6.209-5.138a77.268,77.268,0,0,1,.178-9.472,5.256,5.256,0,0,1,4.655-4.21c4.256-.112,8.52-.127,12.774,0,2.341.071,4.667,2.579,4.888,4.819.073.736-.148,1.068-.915,1a6.13,6.13,0,0,1-1.223-.037,1.374,1.374,0,0,1-.834-.666,2.965,2.965,0,0,0-2.89-2.285c-3.6-.06-7.2-.071-10.793,0a2.95,2.95,0,0,0-3,3.113q-.073,3.342,0,6.684a3.088,3.088,0,0,0,3.343,3.18q5.066.02,10.133,0a3.065,3.065,0,0,0,3.28-3.129c.043-.746-.153-1.079-.983-1.06-2.113.047-4.229-.011-6.344.029-.771.015-1.062-.223-1.043-1.016.055-2.271-.186-1.945,1.981-1.959,2.272-.015,4.546-.01,6.819,0a2.2,2.2,0,0,1,2.522,2.457c.015,1.469.168,2.975-.6,4.325a6.029,6.029,0,0,1-5.5,3.342Q262.7,575.3,260.092,575.3Z" transform="translate(-114.072 -555.801)" fill="#0a1111"/>
          <path id="Path_5" data-name="Path 5" d="M184.019,575.312c-.021-.417-.048-.724-.048-1.031,0-5.585.017-11.172-.021-16.758-.006-.9.25-1.178,1.166-1.171,5.081.041,10.164,0,15.245.032,3.13.021,5.615,1.485,6,4.38a39.111,39.111,0,0,1-.057,10.269c-.363,2.7-3.016,4.274-5.792,4.277q-7.763.006-15.528,0Zm10.233-2.983H200.4a3.031,3.031,0,0,0,3.279-3.293q.022-3.2,0-6.4a3.007,3.007,0,0,0-3.262-3.317c-4.2-.04-8.392-.006-12.588-.022-.646,0-.892.228-.888.883q.03,5.648,0,11.293c0,.657.212.877.87.868C189.962,572.31,192.107,572.328,194.252,572.33Z" transform="translate(-129.75 -555.814)" fill="#0a1111"/>
          <path id="Path_6" data-name="Path 6" d="M238.757,575.3c-1.674,0-3.352-.076-5.019.017-3.236.181-6.131-2.455-6.234-5.115a74.629,74.629,0,0,1,.156-9.384,5.267,5.267,0,0,1,4.845-4.341c4.131-.113,8.271-.135,12.4,0a5.555,5.555,0,0,1,5.087,5.207c.1,2.759.1,5.526,0,8.285a5.931,5.931,0,0,1-5.645,5.327C242.483,575.316,240.619,575.3,238.757,575.3Zm-.135-2.983c1.735,0,3.469.011,5.2,0a2.947,2.947,0,0,0,3.239-3.031c.071-2.318.067-4.642,0-6.959a2.826,2.826,0,0,0-2.886-2.981q-5.435-.123-10.877,0a2.922,2.922,0,0,0-2.959,3.047c-.057,2.255-.053,4.515,0,6.771a3.076,3.076,0,0,0,3.267,3.154C235.278,572.333,236.95,572.319,238.621,572.32Z" transform="translate(-119.238 -555.806)" fill="#0a1111"/>
          <path id="Path_7" data-name="Path 7" d="M294.4,561.157v14.187h-3v-1.089c0-5.4-.009-10.8.015-16.194a3.22,3.22,0,0,1,.32-1.47,4,4,0,0,1,2.219.364c1.624,1.129,3.111,2.454,4.652,3.7q5.724,4.631,11.449,9.26c.261.21.531.409.976.749.04-.558.087-.911.087-1.264.006-3.955-.014-11.263-.014-11.263l3-2.218s.006,12.99.006,18.261v1.173a3.555,3.555,0,0,1-2.927-.658c-5.229-4.34-10.536-8.586-15.82-12.86C295.131,561.648,294.876,561.491,294.4,561.157Z" transform="translate(-103.773 -555.919)" fill="#0a1111"/>
          <path id="Path_8" data-name="Path 8" d="M162.428,575.268h-2.969v-3.02c0-1.318-.029-2.636.01-3.953.021-.742-.276-.983-1-.981q-7.1.032-14.2,0c-.756,0-.98.25-.967.982.04,2.287.015,4.575.015,6.94h-2.945c-.014-.31-.042-.643-.042-.976,0-5.585.019-11.171-.022-16.755-.007-.931.3-1.178,1.188-1.149,2.118.07,1.8-.176,1.818,1.815.016,1.757.024,3.515-.006,5.271-.011.672.192.946.914.943q7.149-.035,14.3,0c.7,0,.957-.276.951-.947-.017-2.008.02-4.017-.016-6.024-.014-.769.248-1.063,1.037-1.049,2.22.036,1.937-.128,1.941,1.917q.015,7.86,0,15.719Z" transform="translate(-140.302 -555.814)" fill="#0a1111"/>
          <path id="Path_9" data-name="Path 9" d="M160.961,556.41c1.884.087,3.8-.545,5.492,1.193,1.945,2,4.188,3.708,6.267,5.583a.993.993,0,0,0,1.593,0c2.291-2.06,4.637-4.063,6.929-6.122a2.466,2.466,0,0,1,1.87-.7c.988.043,1.979.011,2.968.011l.278.477a4.97,4.97,0,0,0-.9.5c-3.063,2.661-6.088,5.367-9.185,7.987a3.041,3.041,0,0,0-1.258,2.717c.1,2.035.029,4.078.029,6.118v1.079h-2.916c-.02-.315-.057-.646-.057-.975-.006-2.228-.029-4.456.01-6.683a2.082,2.082,0,0,0-.8-1.781c-3.288-2.832-6.543-5.706-9.811-8.561-.21-.184-.446-.335-.669-.5Z" transform="translate(-135.346 -555.813)" fill="#0a1111"/>
        </g>
        <g id="Group_3" data-name="Group 3" transform="translate(1.216)">
          <path id="Path_10" data-name="Path 10" d="M208.268,553.359c-2.556,0-5.115-.065-7.668.021a5.373,5.373,0,0,1-4.916-4.077c-.129-.792.1-1.043.854-1a8.955,8.955,0,0,0,1.277,0,1.382,1.382,0,0,1,1.372.723,2.373,2.373,0,0,0,1.6.936c5.04.071,10.082.052,15.123.033a1.665,1.665,0,0,0,1.787-1.7,15.514,15.514,0,0,0,.026-1.8c-.045-1.6-.531-2.1-2.132-2.1-4.721-.012-9.444.006-14.165-.019a8.709,8.709,0,0,1-2.2-.287,4.5,4.5,0,0,1-3.435-3.524,8.284,8.284,0,0,1,.438-5.885,4.373,4.373,0,0,1,3.907-2.537c5.465-.042,10.931-.069,16.4.011,2.2.032,3.549,1.442,4.315,3.39.458,1.164.166,1.5-1.115,1.519-.983.011-1.948.153-2.491-1.062-.158-.354-.967-.587-1.48-.591q-7.456-.065-14.911-.012a1.8,1.8,0,0,0-1.973,2c-.073,2.486-.225,3.784,3.441,3.687,4.4-.115,8.807.078,13.2-.062a5.181,5.181,0,0,1,5.536,5.547,19.372,19.372,0,0,1-.2,3.158,5.233,5.233,0,0,1-4.816,3.648C213.452,553.307,210.859,553.359,208.268,553.359Z" transform="translate(-128.181 -532.041)" fill="#0a1111"/>
          <path id="Path_11" data-name="Path 11" d="M196.96,553.324H193.6c0-1.7,0-3.383,0-5.064,0-2.219-.371-2.59-2.6-2.591q-7.4-.006-14.8,0c-1.419,0-1.422,0-1.423,1.375,0,2.071,0,4.144,0,6.272h-3.307c-.017-.322-.052-.658-.052-.993,0-6.352.014-12.7-.021-19.052-.006-.92.251-1.219,1.2-1.214,6.21.037,12.421.007,18.631.026,2.944.009,4.937,1.106,5.441,3.583.526,2.583.856,5.306-.616,7.819a1.17,1.17,0,0,0,.024,1.013,5.951,5.951,0,0,1,.889,3.422C196.932,549.677,196.96,551.439,196.96,553.324Zm-13.26-10.99c2.624,0,5.248.017,7.87-.006A1.812,1.812,0,0,0,193.6,540.3c.016-.952.014-1.9,0-2.855-.019-1.462-.571-2.054-2.077-2.061-5.246-.024-10.493,0-15.739-.02-.715,0-1.023.238-1.006.985.036,1.655.038,3.313,0,4.968-.019.787.281,1.043,1.058,1.033C178.454,542.316,181.078,542.337,183.7,542.335Z" transform="translate(-133.998 -532.053)" fill="#0a1111"/>
          <path id="Path_12" data-name="Path 12" d="M144.6,553.317h-3.242c-.017-.365-.051-.739-.051-1.111,0-6.283.021-12.567-.025-18.849-.007-1.033.313-1.31,1.326-1.3,7.1.038,23.829,0,23.829,0l-2.429,3.314s-12.277.025-17.957-.016c-1.039-.007-1.5.243-1.4,1.357a25.8,25.8,0,0,1,.009,3.279c-.036.821.251,1.1,1.1,1.1,5.112-.034,15.485-.016,15.485-.016l-1.853,3.349s-7.194-.019-11.809-.019a14.546,14.546,0,0,1-1.6-.01c-1-.111-1.376.227-1.34,1.28.077,2.221.026,4.447.02,6.671C144.662,552.65,144.624,552.958,144.6,553.317Z" transform="translate(-141.281 -532.053)" fill="#0a1111"/>
          <path id="Path_13" data-name="Path 13" d="M230.292,553.34h-3.355V552.1c0-5.116-.027-10.233.021-15.349.01-1.051-.274-1.44-1.371-1.408-2.375.068-7.133.036-7.133.036L220,532.072l20.462.015-1.7,3.267c-2.306.022-4.613.01-6.92.012-1.544,0-1.546,0-1.546,1.491q0,7.57,0,15.138Z" transform="translate(-122.623 -532.048)" fill="#0a1111"/>
          <path id="Path_14" data-name="Path 14" d="M167.233,553.31h-3.3l-.078-16.65,3.375-4.557Z" transform="translate(-135.824 -532.041)" fill="#0a1111"/>
        </g>
      </g>
    </g>
    <g id="Group_8" data-name="Group 8" transform="translate(71.922 535.278)">
      <g id="Group_7" data-name="Group 7">
        <g id="Group_6" data-name="Group 6">
          <path id="Path_15" data-name="Path 15" d="M104.483,571.408H70.578l4.936-5.086h26.58l8.3-10.012L99.03,541.019,87.7,556.313l6.42,7.661-6.532.123L81.1,556.359l17.96-23.426,17.9,23.429Z" transform="translate(-70.578 -532.932)" fill="#fff"/>
        </g>
      </g>
      <path id="Path_16" data-name="Path 16" d="M100.7,564.911l4.282-5.105h11.22l4.734,5.105Z" transform="translate(-63.295 -526.435)" fill="#fff"/>
    </g>
  </g>
</svg>