<svg xmlns="http://www.w3.org/2000/svg" width="978" height="240" viewBox="0 0 978 240" fill="none">
<path d="M39.3198 46.88H86.4398L82.4298 65.73C93.4798 54.57 108.15 43.9 127.25 43.9C156.02 43.9 168.93 62.5 162.4 93.26L143.74 181.06H96.8598L112.31 108.39C115.47 93.51 109.72 85.57 98.0598 85.57C86.3998 85.57 76.5298 93.51 73.3698 108.39L57.9198 181.06H10.7998L39.3198 46.88Z" fill="white"/>
<path d="M163.08 114.59L163.19 114.09C171.47 75.15 206.14 43.9 245.82 43.9C291.95 43.9 306.06 77.88 297.68 117.31C297.05 120.29 296.31 123.76 295.38 126.98H205.6C206.16 141.86 215.05 149.05 229.93 149.05C241.59 149.05 250.86 145.08 262.59 135.41L284.05 156.99C267.62 173.61 247 184.27 220.21 184.27C178.05 184.27 154.29 155.99 163.1 114.58L163.08 114.59ZM256.83 102.93C258.26 88.05 251.33 78.62 238.43 78.62C225.53 78.62 215.84 88.04 209.95 102.93H256.83Z" fill="white"/>
<path d="M302.8 46.88H348.68L351.95 114.34L387.23 46.38H425.92L432.2 114.84L464.75 46.88H510.14L439.99 182.05H399.31L392.35 112.11L355.16 182.05H314.98L302.79 46.88H302.8Z" fill="white"/>
<path d="M493.42 114.59V114.09C493.42 76.14 522.69 44.15 565.1 44.15C592.88 44.15 610.74 56.06 622.39 73.91L590.64 97.72C583.94 89.04 576.75 83.58 565.59 83.58C550.21 83.58 539.05 96.97 539.05 113.59V114.09C539.05 131.2 549.96 144.6 565.84 144.6C577.5 144.6 584.44 139.39 591.63 130.71L623.13 153.53C610.48 172.13 593.12 184.29 563.6 184.29C522.92 184.29 493.41 152.54 493.41 114.6L493.42 114.59Z" fill="white"/>
<path d="M629.48 0H676.36V181.06H629.48V0Z" fill="white"/>
<path d="M687.09 114.59V114.09C687.09 75.15 715.12 43.9 754.8 43.9C800.93 43.9 822.26 77.88 822.26 117.31C822.26 120.29 822.26 123.76 822.01 126.98H732.23C735.95 141.86 746.37 149.05 761.25 149.05C772.91 149.05 781.34 145.08 791.01 135.41L817.05 156.99C804.15 173.61 785.8 184.27 759.01 184.27C716.85 184.27 687.08 155.99 687.08 114.58L687.09 114.59ZM778.36 102.93C776.62 88.05 767.69 78.62 754.8 78.62C741.91 78.62 734.21 88.04 731.49 102.93H778.37H778.36Z" fill="white"/>
<path d="M829.84 114.59V114.09C829.84 75.65 861.09 43.9 904 43.9C946.91 43.9 977.91 75.4 977.91 113.59V114.09C977.91 152.53 946.41 184.28 903.5 184.28C860.59 184.28 829.84 153.03 829.84 114.59ZM932.27 114.59V114.09C932.27 97.47 920.36 83.58 903.5 83.58C886.64 83.58 875.47 96.97 875.47 113.59V114.09C875.47 130.46 887.38 144.35 903.99 144.35C920.6 144.35 932.26 130.71 932.26 114.59H932.27Z" fill="white"/>
<path d="M7.2 197.84H34.3L32.55 206.07H14.84L13.62 211.83H29.63L27.97 219.62H11.96L9.39 231.72H0L7.2 197.85V197.84Z" fill="white"/>
<path d="M32.2101 222.61L35.8401 205.53H45.0301L42.0201 219.7C41.4001 222.6 42.5401 224.1 44.8101 224.1C47.0801 224.1 49.0001 222.6 49.6201 219.7L52.6301 205.53H61.7801L56.2201 231.7H47.0701L47.8401 228.07C45.7301 230.25 42.8301 232.28 39.1101 232.28C33.5001 232.28 30.9401 228.6 32.2101 222.6V222.61Z" fill="white"/>
<path d="M64.85 223.58L67.12 212.89H64.02L65.58 205.54H68.68L70.09 198.91H79.24L77.83 205.54H83.93L82.37 212.89H76.27L74.38 221.79C73.98 223.68 74.65 224.4 76.34 224.4C77.55 224.4 78.78 224.06 80.01 223.53L78.49 230.69C76.6 231.61 74.34 232.24 71.77 232.24C66.2 232.24 63.53 229.82 64.85 223.58Z" fill="white"/>
<path d="M84.59 222.61L88.22 205.53H97.41L94.4 219.7C93.78 222.6 94.92 224.1 97.19 224.1C99.46 224.1 101.38 222.6 102 219.7L105.01 205.53H114.16L108.6 231.7H99.45L100.22 228.07C98.11 230.25 95.21 232.28 91.49 232.28C85.88 232.28 83.32 228.6 84.59 222.6V222.61Z" fill="white"/>
<path d="M119.48 205.53H128.67L127.55 210.8C129.8 207.27 132.68 204.9 137.04 205.09L134.98 214.77H134.21C129.37 214.77 126.13 217.48 124.85 223.53L123.11 231.71H113.92L119.48 205.54V205.53Z" fill="white"/>
<path d="M134.01 224.21L134.03 224.11C135.19 218.64 139.89 215.88 146.04 215.88C148.51 215.88 150.74 216.32 152.12 216.9L152.21 216.46C152.8 213.7 151.43 212.15 147.9 212.15C145.14 212.15 142.9 212.68 140.33 213.6L139.81 207.16C143.02 205.95 146.34 205.13 150.84 205.13C155.34 205.13 158.49 206.24 160.13 208.32C161.7 210.26 161.95 212.97 161.17 216.64L157.97 231.69H148.92L149.51 228.93C147.2 230.91 144.54 232.27 141.06 232.27C136.08 232.27 132.92 229.37 134.02 224.19L134.01 224.21ZM151.08 222.23L151.34 221.02C150.45 220.63 149.21 220.34 147.85 220.34C145.14 220.34 143.37 221.6 142.95 223.58L142.93 223.68C142.55 225.47 143.68 226.54 145.56 226.54C148.27 226.54 150.51 224.89 151.07 222.23H151.08Z" fill="white"/>
<path d="M172.96 228.51L172.28 231.7H163.09L170.6 196.38H179.79L177.11 209.01C179.36 206.83 181.99 204.95 185.91 204.95C192.1 204.95 196.42 210.13 194.64 218.5L194.62 218.6C192.81 227.11 186.34 232.29 180.14 232.29C176.17 232.29 174.28 230.5 172.96 228.52V228.51ZM185.61 218.64L185.63 218.54C186.37 215.06 184.43 212.59 181.52 212.59C178.61 212.59 175.62 215.06 174.88 218.54L174.86 218.64C174.12 222.12 175.97 224.59 178.97 224.59C181.97 224.59 184.86 222.17 185.61 218.64Z" fill="white"/>
<path d="M203.72 196.39H212.87L205.36 231.71H196.21L203.72 196.39Z" fill="white"/>
<path d="M212.32 218.74L212.34 218.64C213.95 211.04 220.72 204.95 228.46 204.95C237.46 204.95 240.21 211.58 238.58 219.27C238.46 219.85 238.31 220.53 238.13 221.16H220.61C220.72 224.06 222.45 225.47 225.36 225.47C227.63 225.47 229.44 224.69 231.73 222.81L235.92 227.02C232.71 230.26 228.69 232.34 223.46 232.34C215.23 232.34 210.6 226.82 212.31 218.75L212.32 218.74ZM230.61 216.47C230.89 213.57 229.54 211.73 227.02 211.73C224.5 211.73 222.61 213.57 221.46 216.47H230.61Z" fill="white"/>
<path d="M260.49 197.84H287.74L286.05 205.78H268.1L267 210.96H283.26L281.69 218.36H265.43L264.29 223.73H282.49L280.79 231.71H253.3L260.5 197.84H260.49Z" fill="white"/>
<path d="M291.34 205.53H300.53L299.75 209.21C301.91 207.03 304.77 204.95 308.5 204.95C314.11 204.95 316.63 208.58 315.36 214.58L311.72 231.71H302.57L305.58 217.53C306.2 214.63 305.07 213.08 302.8 213.08C300.53 213.08 298.6 214.63 297.98 217.53L294.97 231.71H285.78L291.34 205.54V205.53Z" fill="white"/>
<path d="M318.4 218.74L318.42 218.64C320.03 211.04 326.8 204.95 334.54 204.95C343.54 204.95 346.29 211.58 344.66 219.27C344.54 219.85 344.39 220.53 344.21 221.16H326.69C326.8 224.06 328.53 225.47 331.44 225.47C333.71 225.47 335.52 224.69 337.81 222.81L342 227.02C338.79 230.26 334.77 232.34 329.54 232.34C321.31 232.34 316.68 226.82 318.39 218.75L318.4 218.74ZM336.69 216.47C336.97 213.57 335.62 211.73 333.1 211.73C330.58 211.73 328.69 213.57 327.54 216.47H336.69Z" fill="white"/>
<path d="M351.71 205.53H360.9L359.78 210.8C362.03 207.27 364.91 204.9 369.27 205.09L367.21 214.77H366.44C361.6 214.77 358.36 217.48 357.08 223.53L355.34 231.71H346.15L351.71 205.54V205.53Z" fill="white"/>
<path d="M365.61 236.54L369.86 230.44C372.39 231.99 374.95 232.91 378.48 232.91C383.08 232.91 385.78 230.68 386.67 226.48L386.89 225.46C384.55 227.59 381.85 229.38 378.02 229.38C371.58 229.38 367.34 224.73 368.94 217.24L368.96 217.14C370.56 209.59 376.87 204.95 382.88 204.95C386.9 204.95 388.83 206.55 390.32 208.63L390.98 205.53H400.17L395.94 225.41C394.93 230.15 393.08 233.63 390.33 235.86C387.43 238.33 383.5 239.54 378.03 239.54C373 239.54 369.01 238.48 365.6 236.54H365.61ZM388.68 217.23L388.7 217.13C389.32 214.23 387.51 212.05 384.41 212.05C381.31 212.05 378.58 214.23 377.95 217.18L377.93 217.28C377.31 220.18 379.09 222.31 382.23 222.31C385.37 222.31 388.06 220.13 388.68 217.23Z" fill="white"/>
<path d="M422.63 205.53H432.07L417.06 231.08C413.42 237.27 410.56 239.6 405.28 239.6C401.99 239.6 399.56 238.73 397.39 237.33L401.57 230.89C402.88 231.81 404.27 232.29 405.29 232.29C406.21 232.29 406.89 232.05 407.69 231.23L402.89 205.54H412.47L414.34 221.31L422.63 205.54V205.53Z" fill="white"/>
<path d="M440.91 205.49L427.15 228.93H948.12L961.89 205.49H440.91Z" fill="white"/>
</svg>